<?xml version="1.0" standalone="no"?>
<!DOCTYPE svg PUBLIC "-//W3C//DTD SVG 20010904//EN"
 "http://www.w3.org/TR/2001/REC-SVG-20010904/DTD/svg10.dtd">
<svg version="1.0" xmlns="http://www.w3.org/2000/svg"
 width="512.000000pt" height="512.000000pt" viewBox="0 0 512.000000 512.000000"
 preserveAspectRatio="xMidYMid meet">

<g transform="translate(0.000000,512.000000) scale(0.100000,-0.100000)"
fill="#000000" stroke="none">
<path d="M1082 3808 l3 -382 505 -384 c278 -211 505 -387 505 -392 0 -5 -227
-181 -505 -392 l-505 -384 -3 -382 c-1 -256 1 -382 8 -382 13 0 2020 1530
2020 1540 0 10 -2007 1540 -2020 1540 -7 0 -9 -126 -8 -382z"/>
<path d="M2382 3808 l3 -382 505 -384 c278 -211 505 -387 505 -392 0 -5 -227
-181 -505 -392 l-505 -384 -3 -382 c-1 -256 1 -382 8 -382 13 0 2020 1530
2020 1540 0 10 -2007 1540 -2020 1540 -7 0 -9 -126 -8 -382z"/>
</g>
</svg>
