<?xml version="1.0" standalone="no"?>
<!DOCTYPE svg PUBLIC "-//W3C//DTD SVG 20010904//EN"
 "http://www.w3.org/TR/2001/REC-SVG-20010904/DTD/svg10.dtd">
<svg version="1.0" xmlns="http://www.w3.org/2000/svg"
 width="512.000000pt" height="512.000000pt" viewBox="0 0 512.000000 512.000000"
 preserveAspectRatio="xMidYMid meet">

<g transform="translate(0.000000,512.000000) scale(0.100000,-0.100000)"
fill="#000000" stroke="none">
<path d="M1715 3425 c-550 -420 -1001 -767 -1003 -773 -3 -10 2001 -1542 2018
-1542 7 0 9 126 8 382 l-3 382 -505 384 c-278 211 -505 387 -505 392 0 5 227
181 505 392 l505 384 3 382 c2 303 0 382 -10 381 -7 0 -463 -344 -1013 -764z"/>
<path d="M3015 3425 c-550 -420 -1001 -767 -1003 -773 -3 -10 2001 -1542 2018
-1542 7 0 9 126 8 382 l-3 382 -505 384 c-278 211 -505 387 -505 392 0 5 227
181 505 392 l505 384 3 382 c2 303 0 382 -10 381 -7 0 -463 -344 -1013 -764z"/>
</g>
</svg>
