<?xml version="1.0" standalone="no"?>
<!DOCTYPE svg PUBLIC "-//W3C//DTD SVG 20010904//EN"
 "http://www.w3.org/TR/2001/REC-SVG-20010904/DTD/svg10.dtd">
<svg version="1.0" xmlns="http://www.w3.org/2000/svg"
 width="512.000000pt" height="512.000000pt" viewBox="0 0 512.000000 512.000000"
 preserveAspectRatio="xMidYMid meet">

<g transform="translate(0.000000,512.000000) scale(0.100000,-0.100000)"
fill="#000000" stroke="none">
<path d="M2540 5033 c0 -11 -18 -112 -41 -224 -176 -879 -334 -1274 -629
-1569 -290 -291 -695 -457 -1511 -620 -140 -28 -265 -53 -279 -56 -16 -4 82
-27 260 -64 1025 -209 1429 -409 1720 -855 172 -264 297 -638 431 -1295 32
-157 58 -283 58 -280 1 3 24 117 51 254 69 341 131 588 199 796 120 361 235
564 431 761 289 289 697 454 1540 622 124 25 236 47 250 49 l25 4 -25 7 c-14
3 -119 25 -235 47 -1005 196 -1450 412 -1737 845 -193 291 -321 684 -468 1439
-28 141 -40 184 -40 139z"/>
</g>
</svg>
